<svg width="600" height="600" viewBox="0 0 600 600" fill="none" xmlns="http://www.w3.org/2000/svg">
<g clip-path="url(#clip0_176_118)">
<path fill-rule="evenodd" clip-rule="evenodd" d="M366.667 433.333H400C400 378.105 355.228 333.333 300 333.333C244.772 333.333 200 378.105 200 433.333H233.333C233.333 396.514 263.181 366.667 300 366.667C336.819 366.667 366.667 396.514 366.667 433.333ZM300 600C465.685 600 600 465.685 600 300C600 134.315 465.685 0 300 0C134.315 0 0 134.315 0 300C0 465.685 134.315 600 300 600ZM300 566.667C447.276 566.667 566.667 447.276 566.667 300C566.667 152.724 447.276 33.3333 300 33.3333C152.724 33.3333 33.3333 152.724 33.3333 300C33.3333 447.276 152.724 566.667 300 566.667ZM200 266.667C218.409 266.667 233.333 251.743 233.333 233.333C233.333 214.924 218.409 200 200 200C181.59 200 166.667 214.924 166.667 233.333C166.667 251.743 181.59 266.667 200 266.667ZM400 266.667C418.409 266.667 433.333 251.743 433.333 233.333C433.333 214.924 418.409 200 400 200C381.59 200 366.667 214.924 366.667 233.333C366.667 251.743 381.59 266.667 400 266.667Z" fill="#EA4600"/>
</g>
<defs>
<clipPath id="clip0_176_118">
<rect width="600" height="600" fill="white"/>
</clipPath>
</defs>
</svg>
