<svg width="78" height="32" viewBox="0 0 78 32" fill="none" xmlns="http://www.w3.org/2000/svg">
<path d="M7.35758 31.4242C5.09495 31.4242 3.3697 30.7879 2.18182 29.5152C0.99394 28.2141 0.4 26.3616 0.4 23.9576V8.34545C0.4 5.94141 0.99394 4.10303 2.18182 2.8303C3.3697 1.52929 5.09495 0.878785 7.35758 0.878785C9.6202 0.878785 11.3455 1.52929 12.5333 2.8303C13.7212 4.10303 14.3152 5.94141 14.3152 8.34545V10.8909H9.90303V8.04848C9.90303 6.09697 9.09697 5.12121 7.48485 5.12121C5.87273 5.12121 5.06667 6.09697 5.06667 8.04848V24.297C5.06667 26.2202 5.87273 27.1818 7.48485 27.1818C9.09697 27.1818 9.90303 26.2202 9.90303 24.297V18.4848H7.5697V14.2424H14.3152V23.9576C14.3152 26.3616 13.7212 28.2141 12.5333 29.5152C11.3455 30.7879 9.6202 31.4242 7.35758 31.4242ZM23.0028 1.30303H27.4998L29.5786 24.1273H29.6634L31.8695 1.30303H36.9604L39.1665 24.1273H39.2513L41.3301 1.30303H45.3604L42.3483 31H36.5362L34.415 10.9758H34.3301L32.2089 31H26.015L23.0028 1.30303ZM50.747 1.30303H57.0682L61.9045 31H57.2379L56.3894 25.103V25.1879H51.0864L50.2379 31H45.9106L50.747 1.30303ZM55.8379 21.1576L53.7591 6.47879H53.6742L51.6379 21.1576H55.8379ZM64.1686 1.30303H71.0413C73.3605 1.30303 75.0999 1.92525 76.2595 3.1697C77.4191 4.41414 77.9989 6.23838 77.9989 8.64242V11.5697C77.9989 13.9737 77.4191 15.798 76.2595 17.0424C75.0999 18.2869 73.3605 18.9091 71.0413 18.9091H68.8353V31H64.1686V1.30303ZM71.0413 14.6667C71.805 14.6667 72.3706 14.4545 72.7383 14.0303C73.1343 13.6061 73.3322 12.8848 73.3322 11.8667V8.34545C73.3322 7.32727 73.1343 6.60606 72.7383 6.18182C72.3706 5.75757 71.805 5.54545 71.0413 5.54545H68.8353V14.6667H71.0413Z" fill="url(#paint0_linear_0_839)"/>
<defs>
<linearGradient id="paint0_linear_0_839" x1="-44.4667" y1="25.98" x2="-21.0069" y2="83.338" gradientUnits="userSpaceOnUse">
<stop stop-color="#842163"/>
<stop offset="0.411458" stop-color="#EA4600"/>
<stop offset="0.760417" stop-color="#F3B963"/>
<stop offset="1" stop-color="#AED1CC"/>
</linearGradient>
</defs>
</svg>
