<svg width="40" height="40" viewBox="0 0 40 40" fill="none" xmlns="http://www.w3.org/2000/svg">
<circle cx="20" cy="20" r="20" fill="#049CE5"/>
<path fill-rule="evenodd" clip-rule="evenodd" d="M27.096 10.6665C28.1226 10.7011 28.5128 11.2297 28.2665 12.2524C27.1914 17.477 26.0586 22.688 24.8681 27.8853C24.4317 28.313 23.9408 28.3759 23.3954 28.0741C21.7919 26.8506 20.1682 25.6549 18.5243 24.4868C17.658 25.2775 16.8148 26.0956 15.9944 26.9412C15.7688 27.0985 15.517 27.1866 15.2392 27.2056C15.3497 25.5693 15.4629 23.933 15.579 22.2967C18.6224 19.5807 21.6433 16.8368 24.6415 14.0649C24.6678 13.882 24.5798 13.8064 24.3772 13.8384C24.1863 13.8582 24.0101 13.9212 23.8486 14.0272C20.2236 16.318 16.5986 18.6088 12.9736 20.8996C12.8477 20.95 12.7218 20.95 12.596 20.8996C11.0604 20.4213 9.52474 19.943 7.98918 19.4647C7.2317 19.2044 7.13104 18.8015 7.6871 18.2563C8.12761 18.0256 8.58073 17.8242 9.04647 17.6522C15.0853 15.3585 21.1018 13.03 27.096 10.6665Z" fill="#FEFEFE"/>
</svg>
