<svg width="40" height="40" viewBox="0 0 40 40" fill="none" xmlns="http://www.w3.org/2000/svg">
<g clip-path="url(#clip0_12_33)">
<rect width="40" height="40" fill="white"/>
<path d="M12.925 0.3125C6.76436 0.53125 4.71083 1.0625 2.81526 2.96875C0.856503 4.90625 0.445796 6.5625 0.129868 13.8125C-0.217653 21.75 0.161461 31.75 0.919688 33.9062C2.02544 37.0625 4.07897 38.6562 8.05966 39.375C10.8082 39.875 29.2584 39.875 32.007 39.375C34.2185 39 36.6196 37.9375 37.441 37C38.3888 35.9375 39.2418 33.9062 39.6209 31.8438C40.1264 29.125 40.1264 10.875 39.6209 8.15625C39.147 5.59375 38.0412 3.375 36.7143 2.40625C34.7556 0.9375 32.9548 0.5625 26.3519 0.28125C22.9715 0.15625 19.6858 0.0625 19.0856 0.0625C18.4853 0.09375 15.7051 0.1875 12.925 0.3125ZM12.609 14.5938C13.7464 17.25 15.3576 19.9688 16.2422 20.7812C16.8109 21.2812 16.9688 21.3125 17.2216 20.9375C17.7271 20.1875 17.4111 15.2188 16.7793 14.2812C15.7051 12.6562 15.9263 12.5 19.4015 12.5H22.5608V15.8438C22.5608 17.7188 22.7187 19.4375 22.8767 19.6875C23.3822 20.375 25.4989 17.9375 27.0154 14.9062L28.2475 12.5H30.7749C33.1128 12.5 33.3023 12.5625 33.3023 13.125C33.3023 13.9375 32.3861 15.75 30.5853 18.5312C29.8271 19.6875 29.1953 20.7812 29.1953 20.9688C29.1953 21.1562 30.0167 22.1875 31.0276 23.2812C33.1444 25.5625 34.1237 27.1875 33.8394 27.9375C33.6814 28.3438 33.1759 28.4375 31.3436 28.4375H29.0057L26.9838 26.4375C24.7407 24.1562 23.319 23.375 22.8451 24.0938C22.6871 24.3438 22.5608 25.3438 22.5608 26.3125C22.5608 28 22.4976 28.125 21.7394 28.3125C19.5594 28.8438 15.8947 27.625 13.5252 25.5625C11.061 23.4062 7.14347 16.625 6.82754 13.9062L6.66958 12.5H9.19701H11.7244L12.609 14.5938Z" fill="#2787F5"/>
</g>
<defs>
<clipPath id="clip0_12_33">
<rect width="40" height="40" rx="20" fill="white"/>
</clipPath>
</defs>
</svg>
