<svg width="40" height="40" viewBox="0 0 40 40" fill="none" xmlns="http://www.w3.org/2000/svg">
<g clip-path="url(#clip0_1_525)">
<path opacity="0.996" fill-rule="evenodd" clip-rule="evenodd" d="M18.1641 -0.0390625C19.362 -0.0390625 20.5599 -0.0390625 21.7578 -0.0390625C28.7612 0.811555 34.0347 4.2751 37.5781 10.3516C38.8824 12.8102 39.6766 15.4144 39.9609 18.1641C39.9609 19.362 39.9609 20.5599 39.9609 21.7578C39.1103 28.7612 35.6468 34.0347 29.5703 37.5781C27.1116 38.8824 24.5075 39.6766 21.7578 39.9609C20.5599 39.9609 19.362 39.9609 18.1641 39.9609C11.1606 39.1103 5.8872 35.6468 2.34375 29.5703C1.03948 27.1116 0.245203 24.5075 -0.0390625 21.7578C-0.0390625 20.5599 -0.0390625 19.362 -0.0390625 18.1641C0.811523 11.1607 4.27506 5.88729 10.3516 2.34375C12.8102 1.03948 15.4144 0.245203 18.1641 -0.0390625Z" fill="#3BD265"/>
<path fill-rule="evenodd" clip-rule="evenodd" d="M19.0234 7.46099C24.1741 7.33376 28.0933 9.4431 30.7812 13.7891C33.125 18.3973 32.8646 22.8504 30 27.1485C27.1112 30.8769 23.2962 32.5566 18.5547 32.1876C17.1102 32.0054 15.73 31.6018 14.4141 30.9766C12.3767 31.4339 10.3455 31.9156 8.32031 32.4219C7.66957 32.4719 7.44821 32.1725 7.65625 31.5235C8.06992 29.5332 8.47359 27.541 8.86719 25.5469C6.74327 20.8079 7.19901 16.3418 10.2344 12.1485C12.5326 9.40428 15.4623 7.84178 19.0234 7.46099Z" fill="#FDFEFD"/>
<path fill-rule="evenodd" clip-rule="evenodd" d="M19.2578 10.1173C23.8037 10.0971 27.0459 12.1284 28.9844 16.2111C30.419 20.4335 29.5466 24.0923 26.3672 27.1877C22.6916 30.0294 18.8114 30.3289 14.7266 28.0861C13.4864 28.3929 12.2494 28.7054 11.0156 29.0236C11.1708 27.7655 11.3922 26.5155 11.6797 25.2736C11.2798 24.2957 10.9022 23.3061 10.5469 22.3048C9.63437 17.4777 11.262 13.7928 15.4297 11.2501C16.6476 10.6401 17.9236 10.2625 19.2578 10.1173Z" fill="#3BD265"/>
<path fill-rule="evenodd" clip-rule="evenodd" d="M15.6641 13.8671C16.0059 13.8552 16.3053 13.9593 16.5625 14.1796C16.9745 15.0297 17.3652 15.8891 17.7344 16.7578C17.7891 17.0256 17.7631 17.286 17.6563 17.539C17.3059 17.9021 17.0585 18.3188 16.9141 18.789C16.9114 19.0181 16.9765 19.2265 17.1094 19.414C17.7706 20.2576 18.5128 21.0258 19.3359 21.7187C19.8927 22.1708 20.4916 22.5614 21.1328 22.8906C21.4673 22.966 21.7798 22.9139 22.0703 22.7343C22.3307 22.4739 22.5912 22.2135 22.8516 21.9531C22.9843 21.8782 23.1276 21.8392 23.2813 21.8359C24.27 22.0668 25.2466 22.3403 26.2109 22.6562C26.5688 22.9248 26.686 23.2764 26.5625 23.7109C25.8688 25.1839 24.7098 25.913 23.0859 25.8984C21.3739 25.7228 19.8374 25.1108 18.4766 24.0624C16.9432 22.9199 15.6541 21.5528 14.6094 19.9609C13.897 18.7886 13.6236 17.5256 13.7891 16.1718C14.0299 15.4298 14.4466 14.8048 15.0391 14.2968C15.2398 14.1338 15.4482 13.9906 15.6641 13.8671Z" fill="#FDFEFD"/>
</g>
<defs>
<clipPath id="clip0_1_525">
<rect width="40" height="40" fill="white"/>
</clipPath>
</defs>
</svg>
